<svg xmlns="http://www.w3.org/2000/svg" viewBox="0 0 17 17"><defs><style>.cls-1{fill:#e5312e;}</style></defs><title>ico-duplicar</title><g id="Layer_2" data-name="Layer 2"><g id="curso"><path class="cls-1" d="M3.83,15.3v-.85H1.2A.41.41,0,0,1,.85,14V1.3A.41.41,0,0,1,1.2.85H12.4a.41.41,0,0,1,.35.45V2.55h.85V1.27A1.28,1.28,0,0,0,12.33,0h-11A1.28,1.28,0,0,0,0,1.27V14A1.28,1.28,0,0,0,1.27,15.3Z"/><path class="cls-1" d="M11.78,6.92l2.55,2.55a.43.43,0,0,1,0,.6l-2.55,2.55a.42.42,0,0,1-.6-.6L13,10.2H3.4a.42.42,0,0,1,0-.85H13L11.18,7.53a.43.43,0,1,1,.6-.6Z"/><path class="cls-1" d="M15.73,1.7h-11A1.28,1.28,0,0,0,3.4,3V6h.85V3a.41.41,0,0,1,.35-.45H15.8a.41.41,0,0,1,.35.45V15.7a.41.41,0,0,1-.35.45H4.6a.41.41,0,0,1-.35-.45V13.61H3.4v2.11A1.28,1.28,0,0,0,4.68,17H15.73A1.28,1.28,0,0,0,17,15.73V3A1.28,1.28,0,0,0,15.73,1.7Z"/></g></g></svg>