<svg xmlns="http://www.w3.org/2000/svg" viewBox="0 0 13.56 15.5"><defs><style>.cls-1{fill:#e5312e;}</style></defs><title>ico-eliminar</title><g id="Layer_2" data-name="Layer 2"><g id="menu_lateral" data-name="menu lateral"><path class="cls-1" d="M3.88,1h0v1H9.69V1H3.88ZM1,2.91H0v-1H2.91V1a1,1,0,0,1,1-1H9.69a1,1,0,0,1,1,1v1h2.91v1h-1v0l-.46,11.14a1.48,1.48,0,0,1-1.47,1.41H2.9a1.48,1.48,0,0,1-1.47-1.41L1,2.95v0Zm1,0L2.4,14a.51.51,0,0,0,.5.48h7.76a.51.51,0,0,0,.5-.48l.46-11.14Zm6.3,1.94v7.75h1V4.84Zm-1.94,0v7.75h1V4.84Zm-1.94,0V12.6h1V4.85Z"/></g></g></svg>