<svg xmlns="http://www.w3.org/2000/svg" viewBox="0 0 24.4 27"><defs><style>.cls-1{fill:#b50404;}</style></defs><title>ico-menu-cerrar-sesion</title><g id="Layer_2" data-name="Layer 2"><g id="menu_lateral" data-name="menu lateral"><path class="cls-1" d="M20.9,27H14.65a1,1,0,1,1,0-2H20.9a1.5,1.5,0,0,0,1.5-1.5V3.5A1.5,1.5,0,0,0,20.9,2H14.65a1,1,0,0,1,0-2H20.9a3.5,3.5,0,0,1,3.5,3.5v20A3.5,3.5,0,0,1,20.9,27Z"/><path class="cls-1" d="M6,19.5a1,1,0,0,1-.71-.29l-5-5a1,1,0,0,1,0-1.41l5-5A1,1,0,0,1,6.71,9.21L2.41,13.5l4.29,4.29A1,1,0,0,1,6,19.5Z"/><path class="cls-1" d="M16,14.5H1a1,1,0,0,1,0-2H16a1,1,0,0,1,0,2Z"/></g></g></svg>