<svg xmlns="http://www.w3.org/2000/svg" viewBox="0 0 22 22"><defs><style>.cls-1{fill:#e5312e;}</style></defs><title>ico-cerrar</title><g id="Layer_2" data-name="Layer 2"><g id="Layer_8" data-name="Layer 8"><path class="cls-1" d="M11,22A11,11,0,1,1,22,11,11,11,0,0,1,11,22ZM11,2a9,9,0,1,0,9,9A9,9,0,0,0,11,2Z"/><path class="cls-1" d="M8,15a1,1,0,0,1-.71-1.71l6-6a1,1,0,0,1,1.41,1.41l-6,6A1,1,0,0,1,8,15Z"/><path class="cls-1" d="M14,15a1,1,0,0,1-.71-.29l-6-6A1,1,0,0,1,8.71,7.29l6,6A1,1,0,0,1,14,15Z"/></g></g></svg>