<svg xmlns="http://www.w3.org/2000/svg" viewBox="0 0 25 24.99"><defs><style>.cls-1{fill:#b50404;}</style></defs><title>ico-menu-reporteador</title><g id="Layer_2" data-name="Layer 2"><g id="menu_lateral" data-name="menu lateral"><path class="cls-1" d="M12.48,25a12.5,12.5,0,0,1-5-24,.93.93,0,0,1,.74,1.7A10.65,10.65,0,1,0,22.31,16.64a.93.93,0,0,1,1.71.72A12.52,12.52,0,0,1,12.48,25Z"/><path class="cls-1" d="M24.07,13.43H12.5a.93.93,0,0,1-.93-.93V.93A.93.93,0,0,1,12.5,0,12.51,12.51,0,0,1,25,12.5.93.93,0,0,1,24.07,13.43ZM13.43,11.57h9.68a10.67,10.67,0,0,0-9.68-9.68Z"/></g></g></svg>