<svg xmlns="http://www.w3.org/2000/svg" viewBox="0 0 27 22.45"><defs><style>.cls-1{fill:#b50404;}</style></defs><title>ico-menu-gestion-usuarios</title><g id="Layer_2" data-name="Layer 2"><g id="menu_lateral" data-name="menu lateral"><path class="cls-1" d="M19.18,22.45a1,1,0,0,1-1-1V19.18a3.55,3.55,0,0,0-3.55-3.55H5.55A3.55,3.55,0,0,0,2,19.18v2.27a1,1,0,0,1-2,0V19.18a5.55,5.55,0,0,1,5.55-5.55h9.09a5.55,5.55,0,0,1,5.55,5.55v2.27A1,1,0,0,1,19.18,22.45Z"/><path class="cls-1" d="M10.09,11.09a5.55,5.55,0,1,1,5.55-5.55A5.55,5.55,0,0,1,10.09,11.09Zm0-9.09a3.55,3.55,0,1,0,3.55,3.55A3.55,3.55,0,0,0,10.09,2Z"/><path class="cls-1" d="M26,22.45a1,1,0,0,1-1-1V19.18a3.55,3.55,0,0,0-2.66-3.43,1,1,0,1,1,.5-1.94A5.55,5.55,0,0,1,27,19.18v2.27A1,1,0,0,1,26,22.45Z"/><path class="cls-1" d="M18,11a1,1,0,0,1-.25-2,3.55,3.55,0,0,0,0-6.87,1,1,0,0,1,.5-1.94,5.55,5.55,0,0,1,0,10.74A1,1,0,0,1,18,11Z"/></g></g></svg>