<svg xmlns="http://www.w3.org/2000/svg" viewBox="0 0 25.12 25.12"><defs><style>.cls-1{fill:#b50404;}</style></defs><title>ico-menu-plantillas</title><g id="Layer_2" data-name="Layer 2"><g id="menu_lateral" data-name="menu lateral"><path class="cls-1" d="M21.53,25.12,3.43,25A3.45,3.45,0,0,1,0,21.53L.12,3.43A3.45,3.45,0,0,1,3.59,0l18.1.12a3.45,3.45,0,0,1,3.43,3.47L25,21.69A3.45,3.45,0,0,1,21.53,25.12ZM3.58,1.72A1.73,1.73,0,0,0,1.84,3.44l-.12,18.1a1.73,1.73,0,0,0,1.71,1.74l18.1.12a1.73,1.73,0,0,0,1.74-1.71l.12-18.1a1.73,1.73,0,0,0-1.71-1.74Z"/><path class="cls-1" d="M24.22,9.62.94,9.47A.86.86,0,0,1,1,7.74l23.28.15a.86.86,0,0,1,0,1.72Z"/><path class="cls-1" d="M8.6,25a.86.86,0,0,1-.86-.87l.1-15.52a.86.86,0,1,1,1.72,0l-.1,15.52A.86.86,0,0,1,8.6,25Z"/></g></g></svg>