<svg xmlns="http://www.w3.org/2000/svg" viewBox="0 0 15 18"><defs><style>.cls-1{fill:#e5312e;}</style></defs><title>ico-descargar</title><g id="Layer_2" data-name="Layer 2"><g id="menu_lateral" data-name="menu lateral"><path class="cls-1" d="M9.75,3h3A2.25,2.25,0,0,1,15,5.25v10.5A2.25,2.25,0,0,1,12.75,18H2.25a2.17,2.17,0,0,1-1.59-.66A2.17,2.17,0,0,1,0,15.75V5.25A2.17,2.17,0,0,1,.66,3.66,2.17,2.17,0,0,1,2.25,3h3V4.5h-3a.75.75,0,0,0-.75.75v10.5a.75.75,0,0,0,.75.75h10.5a.75.75,0,0,0,.75-.75V5.25a.75.75,0,0,0-.75-.75h-3ZM7.5,0A.72.72,0,0,1,8,.22a.72.72,0,0,1,.22.53v9.44L10,8.47A.75.75,0,0,1,11,9.53l-3,3a.76.76,0,0,1-1.07,0l-3-3A.75.75,0,0,1,3.75,9,.75.75,0,0,1,5,8.47l1.72,1.72V.75A.72.72,0,0,1,7,.22.72.72,0,0,1,7.5,0Z"/></g></g></svg>