<svg xmlns="http://www.w3.org/2000/svg" viewBox="0 0 260.92 58.74"><defs><style>.cls-1,.cls-2{fill:#fff;}.cls-1{fill-rule:evenodd;}</style></defs><title>logo</title><g id="Layer_2" data-name="Layer 2"><g id="menu_lateral" data-name="menu lateral"><path class="cls-1" d="M57.5,47.54V25.63l-.73-.73-15-15-15,15-.73.73V47.54h5V27.7L41.75,16.95,52.5,27.7V47.54ZM0,9.56v7.08L11.06,27.7V47.54h5V25.63l-.73-.73L0,9.56ZM67.42,25.63V47.54h5V27.7L83.48,16.64V9.56L68.15,24.9l-.73.73ZM20.88,14.48a7.24,7.24,0,1,0-7.24-7.24,7.24,7.24,0,0,0,7.24,7.24Zm41.74,0a7.24,7.24,0,1,0-7.24-7.24,7.24,7.24,0,0,0,7.24,7.24Zm0,6.68L41.75.31,20.9,21.16,0,.26V7.34L18.39,25.74v21.8h5V25.74L41.75,7.39,60.09,25.74v21.8h5V25.74L83.48,7.34V.26L62.59,21.16ZM.09,58.55h2.5V50.37H.09v8.17ZM12,55.86h0L7.26,50.37H4.78v8.17H7.13V53.07h0l4.73,5.47h2.5V50.37H12v5.48Zm4.53,2.69h2.5V55.16h4.75V53.77H19.07v-1.9h5.48V50.37h-8v8.17Zm18.63-7.12a5.29,5.29,0,0,0-1.75-.92,8.47,8.47,0,0,0-4.7,0,5.29,5.29,0,0,0-1.76.92,4,4,0,0,0-1.1,1.37,3.84,3.84,0,0,0-.38,1.7,3.72,3.72,0,0,0,.38,1.67A4,4,0,0,0,27,57.51a5.33,5.33,0,0,0,1.76.9,8.62,8.62,0,0,0,4.7,0,5.34,5.34,0,0,0,1.75-.9,4,4,0,0,0,1.1-1.35,3.72,3.72,0,0,0,.38-1.67,3.84,3.84,0,0,0-.38-1.7,4,4,0,0,0-1.1-1.37ZM34,55.5a2.43,2.43,0,0,1-.53.88,2.61,2.61,0,0,1-1,.63,4.46,4.46,0,0,1-2.86,0,2.61,2.61,0,0,1-1-.63,2.42,2.42,0,0,1-.53-.88,3.08,3.08,0,0,1-.17-1,3.3,3.3,0,0,1,.17-1,2.45,2.45,0,0,1,.53-.9,2.57,2.57,0,0,1,1-.63,4.46,4.46,0,0,1,2.86,0,2.57,2.57,0,0,1,1,.63,2.45,2.45,0,0,1,.53.9,3.31,3.31,0,0,1,.17,1,3.08,3.08,0,0,1-.17,1Zm11.62.36h0l-4.74-5.48H38.37v8.17h2.35V53.07h0l4.73,5.47H48V50.37H45.62v5.48Zm18,.26h0l-2.84-5.75H57.86L62,58.55h3.16l4.23-8.17H66.47L63.6,56.12ZM53.1,50.37,49,58.55h2.79l2.77-5.75h0l2.73,5.75h2.77l-4-8.17Zm17.23,8.17h2.5V50.37h-2.5v8.17Zm3.79-6.67h3.4v6.67H80V51.88h3.4V50.37H74.12v1.51Z"/><path class="cls-2" d="M116.35,17.77a6.94,6.94,0,0,1-2.42-.45A6.32,6.32,0,0,1,111.77,16l1.6-1.92a6,6,0,0,0,1.47.93,3.87,3.87,0,0,0,1.59.36,2.15,2.15,0,0,0,1.3-.32,1,1,0,0,0,.43-.87,1,1,0,0,0-.12-.49,1.19,1.19,0,0,0-.36-.37,3.42,3.42,0,0,0-.57-.3l-.73-.31L114.75,12a4.79,4.79,0,0,1-.92-.49,4,4,0,0,1-.8-.71,3.2,3.2,0,0,1-.56-1,3.38,3.38,0,0,1-.21-1.23,3.28,3.28,0,0,1,.32-1.43A3.57,3.57,0,0,1,113.5,6a4.35,4.35,0,0,1,1.4-.79,5.31,5.31,0,0,1,1.78-.29,5.76,5.76,0,0,1,2.14.42,5.41,5.41,0,0,1,1.85,1.22l-1.43,1.77A5.4,5.4,0,0,0,118,7.6a3.43,3.43,0,0,0-1.35-.26,2,2,0,0,0-1.15.29,1,1,0,0,0-.43.83.81.81,0,0,0,.14.48,1.38,1.38,0,0,0,.4.36,4,4,0,0,0,.6.3l.74.31,1.6.65a4.36,4.36,0,0,1,1.8,1.25,3.22,3.22,0,0,1,.66,2.11,3.52,3.52,0,0,1-1.23,2.69,4.54,4.54,0,0,1-1.47.84A5.83,5.83,0,0,1,116.35,17.77Z"/><path class="cls-2" d="M124.29,6.74a1.67,1.67,0,0,1-1.16-.41,1.35,1.35,0,0,1-.46-1.05,1.32,1.32,0,0,1,.46-1,1.9,1.9,0,0,1,2.33,0,1.33,1.33,0,0,1,.45,1,1.36,1.36,0,0,1-.45,1.05A1.66,1.66,0,0,1,124.29,6.74ZM122.9,17.55V8.12h2.79v9.42Z"/><path class="cls-2" d="M130.92,17.77a5.51,5.51,0,0,1-1.91-.36,5.89,5.89,0,0,1-1.7-1l1.25-1.75a5.66,5.66,0,0,0,1.24.74,3.07,3.07,0,0,0,1.2.25,1.56,1.56,0,0,0,.91-.21.69.69,0,0,0,.29-.59.6.6,0,0,0-.16-.41,1.65,1.65,0,0,0-.44-.33,4.32,4.32,0,0,0-.62-.28l-.7-.28a8.89,8.89,0,0,1-.87-.4,3.69,3.69,0,0,1-.8-.56,2.74,2.74,0,0,1-.59-.78,2.25,2.25,0,0,1-.23-1,2.8,2.8,0,0,1,.26-1.2,2.56,2.56,0,0,1,.73-.93,3.62,3.62,0,0,1,1.14-.6,4.74,4.74,0,0,1,1.48-.22,4.57,4.57,0,0,1,1.9.37,7.63,7.63,0,0,1,1.43.83l-1.25,1.67a5,5,0,0,0-1-.59,2.52,2.52,0,0,0-1-.21q-1.06,0-1.06.74a.55.55,0,0,0,.15.39,1.51,1.51,0,0,0,.41.29,5.35,5.35,0,0,0,.59.26l.69.26q.46.17.9.39a3.74,3.74,0,0,1,.82.54,2.48,2.48,0,0,1,.6.79,2.51,2.51,0,0,1,.23,1.11,2.9,2.9,0,0,1-.25,1.2,2.64,2.64,0,0,1-.74,1,3.71,3.71,0,0,1-1.22.65A5.36,5.36,0,0,1,130.92,17.77Z"/><path class="cls-2" d="M139.81,17.77a3.76,3.76,0,0,1-1.49-.27,2.61,2.61,0,0,1-1-.74,3,3,0,0,1-.57-1.15,5.75,5.75,0,0,1-.18-1.49V10.31h-1.29V8.24l1.44-.11L137,5.61h2.32V8.12h2.26v2.19h-2.26v3.78a1.64,1.64,0,0,0,.33,1.15,1.16,1.16,0,0,0,.88.35,2,2,0,0,0,.47-.06,3.06,3.06,0,0,0,.43-.13l.44,2q-.38.11-.89.23A5.55,5.55,0,0,1,139.81,17.77Z"/><path class="cls-2" d="M147.34,17.77a5.24,5.24,0,0,1-1.88-.33,4.33,4.33,0,0,1-1.52-1,4.43,4.43,0,0,1-1-1.55,5.64,5.64,0,0,1-.36-2.09,5.36,5.36,0,0,1,.38-2.06,4.89,4.89,0,0,1,1-1.56,4.33,4.33,0,0,1,1.42-1A4.15,4.15,0,0,1,147,7.9a4.21,4.21,0,0,1,1.76.34,3.48,3.48,0,0,1,1.25,1,4,4,0,0,1,.75,1.43,6.25,6.25,0,0,1,.25,1.8,6.52,6.52,0,0,1,0,.72q0,.34-.08.51h-5.64a2.31,2.31,0,0,0,.85,1.51,2.63,2.63,0,0,0,1.61.48,3.88,3.88,0,0,0,2-.63l.93,1.69a6.18,6.18,0,0,1-1.61.78A5.64,5.64,0,0,1,147.34,17.77Zm-2.09-6h3.4a2.14,2.14,0,0,0-.36-1.29,1.41,1.41,0,0,0-1.22-.49,1.73,1.73,0,0,0-1.17.44A2.2,2.2,0,0,0,145.25,11.81Z"/><path class="cls-2" d="M153,17.55V8.12h2.28l.19,1.22h.08a7.53,7.53,0,0,1,1.25-1,3.31,3.31,0,0,1,3.22,0,2.8,2.8,0,0,1,1,1.17,8.26,8.26,0,0,1,1.32-1.11,2.88,2.88,0,0,1,1.64-.47,2.54,2.54,0,0,1,2.23,1,4.78,4.78,0,0,1,.71,2.78v5.85h-2.79V12.06a2.55,2.55,0,0,0-.28-1.41,1,1,0,0,0-.88-.38,2.51,2.51,0,0,0-1.61.91v6.37h-2.79V12.06a2.55,2.55,0,0,0-.28-1.41,1,1,0,0,0-.88-.38,2.39,2.39,0,0,0-1.6.91v6.37Z"/><path class="cls-2" d="M171.62,17.77a3,3,0,0,1-1.17-.22,2.49,2.49,0,0,1-.88-.61A2.81,2.81,0,0,1,169,16a3.06,3.06,0,0,1-.2-1.12,2.64,2.64,0,0,1,1.25-2.32,9.25,9.25,0,0,1,4-1.12,1.59,1.59,0,0,0-.37-1,1.43,1.43,0,0,0-1.11-.37,3.37,3.37,0,0,0-1.21.23,8.85,8.85,0,0,0-1.28.63l-1-1.84A9.9,9.9,0,0,1,171,8.24a6.49,6.49,0,0,1,2.12-.34,3.61,3.61,0,0,1,2.78,1,4.62,4.62,0,0,1,1,3.22v5.4h-2.28l-.19-1h-.08a6,6,0,0,1-1.27.86A3.23,3.23,0,0,1,171.62,17.77Zm1-2.17a1.53,1.53,0,0,0,.82-.21,4,4,0,0,0,.72-.59V13.16a5.06,5.06,0,0,0-2.05.61,1.15,1.15,0,0,0-.57.95.78.78,0,0,0,.29.67A1.29,1.29,0,0,0,172.57,15.61Z"/><path class="cls-2" d="M115.7,35.77a3.62,3.62,0,0,1-1.59-.34,3.42,3.42,0,0,1-1.22-1,4.63,4.63,0,0,1-.78-1.55,7.15,7.15,0,0,1-.28-2.07,6,6,0,0,1,.33-2.07,5,5,0,0,1,.87-1.55,3.8,3.8,0,0,1,1.25-1,3.32,3.32,0,0,1,1.45-.34,2.84,2.84,0,0,1,1.31.27,4.68,4.68,0,0,1,1,.72L118,25.44V22.23h2.79V35.55h-2.28l-.19-.93h-.08a4.42,4.42,0,0,1-1.16.83A3,3,0,0,1,115.7,35.77Zm.72-2.28a1.78,1.78,0,0,0,.83-.19,2.09,2.09,0,0,0,.71-.67V28.78a2.22,2.22,0,0,0-.78-.47,2.45,2.45,0,0,0-.78-.13,1.49,1.49,0,0,0-1.18.64,3.14,3.14,0,0,0-.51,2,3.67,3.67,0,0,0,.45,2.05A1.45,1.45,0,0,0,116.42,33.5Z"/><path class="cls-2" d="M127.44,35.77a5.24,5.24,0,0,1-1.88-.33,4.33,4.33,0,0,1-1.52-1,4.43,4.43,0,0,1-1-1.55,5.64,5.64,0,0,1-.36-2.09,5.36,5.36,0,0,1,.38-2.06,4.89,4.89,0,0,1,1-1.56,4.33,4.33,0,0,1,1.42-1,4.15,4.15,0,0,1,1.65-.34,4.21,4.21,0,0,1,1.76.34,3.48,3.48,0,0,1,1.25,1,4,4,0,0,1,.75,1.43,6.25,6.25,0,0,1,.25,1.8,6.52,6.52,0,0,1,0,.72q0,.34-.08.51h-5.64a2.31,2.31,0,0,0,.85,1.51,2.63,2.63,0,0,0,1.61.48,3.88,3.88,0,0,0,2-.63l.93,1.69a6.18,6.18,0,0,1-1.61.78A5.64,5.64,0,0,1,127.44,35.77Zm-2.09-6h3.4a2.14,2.14,0,0,0-.36-1.29,1.41,1.41,0,0,0-1.22-.49,1.73,1.73,0,0,0-1.17.44A2.2,2.2,0,0,0,125.35,29.81Z"/><path class="cls-2" d="M139.24,35.77a3,3,0,0,1-1.17-.22,2.49,2.49,0,0,1-.88-.61,2.81,2.81,0,0,1-.56-.9,3.06,3.06,0,0,1-.2-1.12,2.64,2.64,0,0,1,1.25-2.32,9.25,9.25,0,0,1,4-1.12,1.59,1.59,0,0,0-.37-1,1.43,1.43,0,0,0-1.11-.37,3.37,3.37,0,0,0-1.21.23,8.85,8.85,0,0,0-1.28.63l-1-1.84a9.9,9.9,0,0,1,1.91-.89,6.49,6.49,0,0,1,2.12-.34,3.61,3.61,0,0,1,2.78,1,4.62,4.62,0,0,1,1,3.22v5.4h-2.28l-.19-1H142a6,6,0,0,1-1.27.86A3.23,3.23,0,0,1,139.24,35.77Zm1-2.17a1.53,1.53,0,0,0,.82-.21,4,4,0,0,0,.72-.59V31.16a5.06,5.06,0,0,0-2.05.61,1.15,1.15,0,0,0-.57.95.78.78,0,0,0,.29.67A1.29,1.29,0,0,0,140.19,33.61Z"/><path class="cls-2" d="M150.24,35.77a3.62,3.62,0,0,1-1.59-.34,3.42,3.42,0,0,1-1.22-1,4.63,4.63,0,0,1-.78-1.55,7.15,7.15,0,0,1-.28-2.07,6,6,0,0,1,.33-2.07,5,5,0,0,1,.87-1.55,3.8,3.8,0,0,1,1.25-1,3.32,3.32,0,0,1,1.45-.34,2.84,2.84,0,0,1,1.31.27,4.68,4.68,0,0,1,1,.72l-.11-1.44V22.23h2.79V35.55H153l-.19-.93h-.08a4.42,4.42,0,0,1-1.16.83A3,3,0,0,1,150.24,35.77ZM151,33.5a1.78,1.78,0,0,0,.83-.19,2.09,2.09,0,0,0,.71-.67V28.78a2.22,2.22,0,0,0-.78-.47,2.45,2.45,0,0,0-.78-.13,1.49,1.49,0,0,0-1.18.64,3.14,3.14,0,0,0-.51,2,3.67,3.67,0,0,0,.45,2.05A1.45,1.45,0,0,0,151,33.5Z"/><path class="cls-2" d="M157.77,35.55V26.12H160l.19,1.22h.08a7.53,7.53,0,0,1,1.25-1,3.31,3.31,0,0,1,3.22,0,2.8,2.8,0,0,1,1,1.17,8.26,8.26,0,0,1,1.32-1.11,2.88,2.88,0,0,1,1.64-.47,2.54,2.54,0,0,1,2.23,1,4.78,4.78,0,0,1,.71,2.78v5.85h-2.79V30.06a2.55,2.55,0,0,0-.28-1.41,1,1,0,0,0-.88-.38,2.51,2.51,0,0,0-1.61.91v6.37h-2.79V30.06a2.55,2.55,0,0,0-.28-1.41,1,1,0,0,0-.88-.38,2.39,2.39,0,0,0-1.6.91v6.37Z"/><path class="cls-2" d="M175.44,24.74a1.67,1.67,0,0,1-1.16-.41,1.35,1.35,0,0,1-.46-1.05,1.32,1.32,0,0,1,.46-1,1.9,1.9,0,0,1,2.33,0,1.33,1.33,0,0,1,.45,1,1.36,1.36,0,0,1-.45,1.05A1.66,1.66,0,0,1,175.44,24.74ZM174,35.55V26.12h2.79v9.42Z"/><path class="cls-2" d="M179.29,35.55V26.12h2.28l.19,1.2h.08a7.61,7.61,0,0,1,1.33-1,3.26,3.26,0,0,1,1.69-.43,2.52,2.52,0,0,1,2.23,1,4.87,4.87,0,0,1,.69,2.79v5.85H185V30.06a2.55,2.55,0,0,0-.28-1.41,1,1,0,0,0-.88-.38,1.69,1.69,0,0,0-.91.24,5.38,5.38,0,0,0-.84.67v6.37Z"/><path class="cls-2" d="M191.55,24.74a1.67,1.67,0,0,1-1.16-.41,1.35,1.35,0,0,1-.46-1.05,1.32,1.32,0,0,1,.46-1,1.9,1.9,0,0,1,2.33,0,1.33,1.33,0,0,1,.45,1,1.36,1.36,0,0,1-.45,1.05A1.66,1.66,0,0,1,191.55,24.74Zm-1.39,10.81V26.12H193v9.42Z"/><path class="cls-2" d="M198.18,35.77a5.51,5.51,0,0,1-1.91-.36,5.89,5.89,0,0,1-1.7-1l1.25-1.75a5.66,5.66,0,0,0,1.24.74,3.07,3.07,0,0,0,1.2.25,1.56,1.56,0,0,0,.91-.21.69.69,0,0,0,.29-.59.6.6,0,0,0-.16-.41,1.65,1.65,0,0,0-.44-.33,4.32,4.32,0,0,0-.62-.28l-.7-.28a8.89,8.89,0,0,1-.87-.4,3.69,3.69,0,0,1-.8-.56,2.74,2.74,0,0,1-.59-.78,2.25,2.25,0,0,1-.23-1,2.8,2.8,0,0,1,.26-1.2,2.56,2.56,0,0,1,.73-.93,3.62,3.62,0,0,1,1.14-.6,4.74,4.74,0,0,1,1.48-.22,4.57,4.57,0,0,1,1.9.37,7.63,7.63,0,0,1,1.43.83l-1.25,1.67a5,5,0,0,0-1-.59,2.52,2.52,0,0,0-1-.21q-1.06,0-1.06.74a.55.55,0,0,0,.15.39,1.51,1.51,0,0,0,.41.29,5.35,5.35,0,0,0,.59.26l.69.26q.46.17.9.39a3.74,3.74,0,0,1,.82.54,2.48,2.48,0,0,1,.6.79,2.51,2.51,0,0,1,.23,1.11,2.9,2.9,0,0,1-.25,1.2,2.64,2.64,0,0,1-.74,1,3.71,3.71,0,0,1-1.22.65A5.36,5.36,0,0,1,198.18,35.77Z"/><path class="cls-2" d="M207.07,35.77a3.76,3.76,0,0,1-1.49-.27,2.61,2.61,0,0,1-1-.74,3,3,0,0,1-.57-1.15,5.75,5.75,0,0,1-.18-1.49V28.31h-1.29V26.24l1.44-.11.32-2.51h2.32v2.51h2.26v2.19h-2.26v3.78a1.64,1.64,0,0,0,.33,1.15,1.16,1.16,0,0,0,.88.35,2,2,0,0,0,.47-.06,3.06,3.06,0,0,0,.43-.13l.44,2q-.38.11-.89.23A5.55,5.55,0,0,1,207.07,35.77Z"/><path class="cls-2" d="M210.72,35.55V26.12H213l.19,1.65h.08a3.65,3.65,0,0,1,1.24-1.42,2.68,2.68,0,0,1,1.44-.46,3.76,3.76,0,0,1,.66,0,2,2,0,0,1,.47.14l-.46,2.41-.49-.11a3.27,3.27,0,0,0-.53,0,2,2,0,0,0-1.11.38,2.75,2.75,0,0,0-1,1.35v5.47Z"/><path class="cls-2" d="M220.12,35.77a3,3,0,0,1-1.17-.22,2.49,2.49,0,0,1-.88-.61,2.81,2.81,0,0,1-.56-.9,3.06,3.06,0,0,1-.2-1.12,2.64,2.64,0,0,1,1.25-2.32,9.25,9.25,0,0,1,4-1.12,1.59,1.59,0,0,0-.37-1,1.43,1.43,0,0,0-1.11-.37,3.37,3.37,0,0,0-1.21.23,8.85,8.85,0,0,0-1.28.63l-1-1.84a9.9,9.9,0,0,1,1.91-.89,6.49,6.49,0,0,1,2.12-.34,3.61,3.61,0,0,1,2.78,1,4.62,4.62,0,0,1,1,3.22v5.4h-2.28l-.19-1h-.08a6,6,0,0,1-1.27.86A3.23,3.23,0,0,1,220.12,35.77Zm1-2.17a1.53,1.53,0,0,0,.82-.21,4,4,0,0,0,.72-.59V31.16a5.06,5.06,0,0,0-2.05.61,1.15,1.15,0,0,0-.57.95.78.78,0,0,0,.29.67A1.29,1.29,0,0,0,221.07,33.61Z"/><path class="cls-2" d="M231.86,35.77a5,5,0,0,1-1.83-.33,4.27,4.27,0,0,1-1.47-1,4.45,4.45,0,0,1-1-1.55,5.72,5.72,0,0,1-.36-2.1,5.24,5.24,0,0,1,.4-2.1,4.54,4.54,0,0,1,1.07-1.55,4.66,4.66,0,0,1,1.57-1,5.29,5.29,0,0,1,1.86-.33,4,4,0,0,1,1.55.28,4.9,4.9,0,0,1,1.21.72l-1.31,1.81a2,2,0,0,0-1.27-.55,2,2,0,0,0-1.61.72,3,3,0,0,0-.59,2,3,3,0,0,0,.6,2,1.88,1.88,0,0,0,1.51.72,2.07,2.07,0,0,0,.88-.2,4.57,4.57,0,0,0,.81-.48l1.1,1.82a4.27,4.27,0,0,1-1.52.86A5.32,5.32,0,0,1,231.86,35.77Z"/><path class="cls-2" d="M238,24.74a1.67,1.67,0,0,1-1.16-.41,1.35,1.35,0,0,1-.46-1.05,1.32,1.32,0,0,1,.46-1,1.9,1.9,0,0,1,2.33,0,1.33,1.33,0,0,1,.45,1,1.36,1.36,0,0,1-.45,1.05A1.66,1.66,0,0,1,238,24.74Zm-1.39,10.81V26.12h2.79v9.42Z"/><path class="cls-2" d="M245.92,35.77a4.64,4.64,0,0,1-1.73-.33,4.39,4.39,0,0,1-1.47-1,4.6,4.6,0,0,1-1-1.55,6,6,0,0,1,0-4.2,4.6,4.6,0,0,1,1-1.55,4.39,4.39,0,0,1,1.47-1,4.64,4.64,0,0,1,1.73-.33,4.56,4.56,0,0,1,1.72.33,4.41,4.41,0,0,1,1.46,1,4.61,4.61,0,0,1,1,1.55,6,6,0,0,1,0,4.2,4.61,4.61,0,0,1-1,1.55,4.41,4.41,0,0,1-1.46,1A4.56,4.56,0,0,1,245.92,35.77Zm0-2.26a1.42,1.42,0,0,0,1.29-.72,3.77,3.77,0,0,0,.44-2,3.77,3.77,0,0,0-.44-2,1.53,1.53,0,0,0-2.59,0,3.83,3.83,0,0,0-.43,2,3.83,3.83,0,0,0,.43,2A1.41,1.41,0,0,0,245.92,33.51Zm.17-8.83-1.37-1.37,2.93-3.46,1.88,1.84Z"/><path class="cls-2" d="M252.42,35.55V26.12h2.28l.19,1.2H255a7.61,7.61,0,0,1,1.33-1A3.26,3.26,0,0,1,258,25.9a2.52,2.52,0,0,1,2.23,1,4.87,4.87,0,0,1,.69,2.79v5.85h-2.79V30.06a2.55,2.55,0,0,0-.28-1.41,1,1,0,0,0-.88-.38,1.69,1.69,0,0,0-.91.24,5.38,5.38,0,0,0-.84.67v6.37Z"/><path class="cls-2" d="M115.7,53.77a3.62,3.62,0,0,1-1.59-.34,3.42,3.42,0,0,1-1.22-1,4.63,4.63,0,0,1-.78-1.55,7.15,7.15,0,0,1-.28-2.07,6,6,0,0,1,.33-2.07,5,5,0,0,1,.87-1.55,3.8,3.8,0,0,1,1.25-1,3.32,3.32,0,0,1,1.45-.34,2.84,2.84,0,0,1,1.31.27,4.68,4.68,0,0,1,1,.72L118,43.44V40.23h2.79V53.55h-2.28l-.19-.93h-.08a4.42,4.42,0,0,1-1.16.83A3,3,0,0,1,115.7,53.77Zm.72-2.28a1.78,1.78,0,0,0,.83-.19,2.09,2.09,0,0,0,.71-.67V46.78a2.22,2.22,0,0,0-.78-.47,2.45,2.45,0,0,0-.78-.13,1.49,1.49,0,0,0-1.18.64,3.14,3.14,0,0,0-.51,2,3.67,3.67,0,0,0,.45,2.05A1.45,1.45,0,0,0,116.42,51.5Z"/><path class="cls-2" d="M127.44,53.77a5.24,5.24,0,0,1-1.88-.33,4.33,4.33,0,0,1-1.52-1,4.43,4.43,0,0,1-1-1.55,5.64,5.64,0,0,1-.36-2.09,5.36,5.36,0,0,1,.38-2.06,4.89,4.89,0,0,1,1-1.56,4.33,4.33,0,0,1,1.42-1,4.15,4.15,0,0,1,1.65-.34,4.21,4.21,0,0,1,1.76.34,3.48,3.48,0,0,1,1.25,1,4,4,0,0,1,.75,1.43,6.25,6.25,0,0,1,.25,1.8,6.52,6.52,0,0,1,0,.72q0,.34-.08.51h-5.64a2.31,2.31,0,0,0,.85,1.51,2.63,2.63,0,0,0,1.61.48,3.88,3.88,0,0,0,2-.63l.93,1.69a6.18,6.18,0,0,1-1.61.78A5.64,5.64,0,0,1,127.44,53.77Zm-2.09-6h3.4a2.14,2.14,0,0,0-.36-1.29,1.41,1.41,0,0,0-1.22-.49,1.73,1.73,0,0,0-1.17.44A2.2,2.2,0,0,0,125.35,47.81Z"/><path class="cls-2" d="M141,53.77a5,5,0,0,1-1.83-.33,4.27,4.27,0,0,1-1.47-1,4.45,4.45,0,0,1-1-1.55,5.72,5.72,0,0,1-.36-2.1,5.24,5.24,0,0,1,.4-2.1,4.54,4.54,0,0,1,1.07-1.55,4.66,4.66,0,0,1,1.57-1,5.29,5.29,0,0,1,1.86-.33,4,4,0,0,1,1.55.28,4.9,4.9,0,0,1,1.21.72l-1.31,1.81a2,2,0,0,0-1.27-.55,2,2,0,0,0-1.61.72,3,3,0,0,0-.59,2,3,3,0,0,0,.6,2,1.88,1.88,0,0,0,1.51.72,2.07,2.07,0,0,0,.88-.2,4.57,4.57,0,0,0,.81-.48l1.1,1.82a4.27,4.27,0,0,1-1.52.86A5.32,5.32,0,0,1,141,53.77Z"/><path class="cls-2" d="M149.25,53.77a4.64,4.64,0,0,1-1.73-.33,4.39,4.39,0,0,1-1.47-1,4.6,4.6,0,0,1-1-1.55,6,6,0,0,1,0-4.2,4.6,4.6,0,0,1,1-1.55,4.39,4.39,0,0,1,1.47-1,4.64,4.64,0,0,1,1.73-.33,4.56,4.56,0,0,1,1.72.33,4.41,4.41,0,0,1,1.46,1,4.61,4.61,0,0,1,1,1.55,6,6,0,0,1,0,4.2,4.61,4.61,0,0,1-1,1.55,4.41,4.41,0,0,1-1.46,1A4.56,4.56,0,0,1,149.25,53.77Zm0-2.26a1.42,1.42,0,0,0,1.29-.72,4.6,4.6,0,0,0,0-3.91,1.53,1.53,0,0,0-2.59,0,4.7,4.7,0,0,0,0,3.91A1.41,1.41,0,0,0,149.25,51.51Z"/><path class="cls-2" d="M155.75,53.55V44.12H158l.19,1.2h.08a7.61,7.61,0,0,1,1.33-1,3.26,3.26,0,0,1,1.69-.43,2.52,2.52,0,0,1,2.23,1,4.87,4.87,0,0,1,.69,2.79v5.85h-2.79V48.06a2.55,2.55,0,0,0-.28-1.41,1,1,0,0,0-.88-.38,1.69,1.69,0,0,0-.91.24,5.38,5.38,0,0,0-.84.67v6.37Z"/><path class="cls-2" d="M170.25,53.77a3.76,3.76,0,0,1-1.49-.27,2.61,2.61,0,0,1-1-.74,3,3,0,0,1-.57-1.15,5.75,5.75,0,0,1-.18-1.49V46.31h-1.29V44.24l1.44-.11.32-2.51h2.32v2.51h2.26v2.19h-2.26v3.78a1.64,1.64,0,0,0,.33,1.15,1.16,1.16,0,0,0,.88.35,2,2,0,0,0,.47-.06,3.06,3.06,0,0,0,.43-.13l.44,2q-.38.11-.89.23A5.55,5.55,0,0,1,170.25,53.77Z"/><path class="cls-2" d="M177.77,53.77a5.24,5.24,0,0,1-1.88-.33,4.33,4.33,0,0,1-1.52-1,4.43,4.43,0,0,1-1-1.55,5.64,5.64,0,0,1-.36-2.09,5.36,5.36,0,0,1,.38-2.06,4.89,4.89,0,0,1,1-1.56,4.33,4.33,0,0,1,1.42-1,4.15,4.15,0,0,1,1.65-.34,4.21,4.21,0,0,1,1.76.34,3.48,3.48,0,0,1,1.25,1,4,4,0,0,1,.75,1.43,6.25,6.25,0,0,1,.25,1.8,6.52,6.52,0,0,1,0,.72q0,.34-.08.51H175.7a2.31,2.31,0,0,0,.85,1.51,2.63,2.63,0,0,0,1.61.48,3.88,3.88,0,0,0,2-.63l.93,1.69a6.18,6.18,0,0,1-1.61.78A5.64,5.64,0,0,1,177.77,53.77Zm-2.09-6h3.4a2.14,2.14,0,0,0-.36-1.29,1.41,1.41,0,0,0-1.22-.49,1.73,1.73,0,0,0-1.17.44A2.2,2.2,0,0,0,175.68,47.81Z"/><path class="cls-2" d="M183.4,53.55V44.12h2.28l.19,1.2h.08a7.61,7.61,0,0,1,1.33-1A3.26,3.26,0,0,1,189,43.9a2.52,2.52,0,0,1,2.23,1,4.87,4.87,0,0,1,.69,2.79v5.85H189.1V48.06a2.55,2.55,0,0,0-.28-1.41,1,1,0,0,0-.88-.38,1.69,1.69,0,0,0-.91.24,5.38,5.38,0,0,0-.84.67v6.37Z"/><path class="cls-2" d="M195.65,42.74a1.67,1.67,0,0,1-1.16-.41,1.35,1.35,0,0,1-.46-1.05,1.32,1.32,0,0,1,.46-1,1.9,1.9,0,0,1,2.33,0,1.33,1.33,0,0,1,.45,1,1.36,1.36,0,0,1-.45,1.05A1.66,1.66,0,0,1,195.65,42.74Zm-1.39,10.81V44.12h2.79v9.42Z"/><path class="cls-2" d="M202.87,53.77a3.62,3.62,0,0,1-1.59-.34,3.42,3.42,0,0,1-1.22-1,4.63,4.63,0,0,1-.78-1.55,7.15,7.15,0,0,1-.28-2.07,6,6,0,0,1,.33-2.07,5,5,0,0,1,.87-1.55,3.8,3.8,0,0,1,1.25-1,3.32,3.32,0,0,1,1.45-.34,2.84,2.84,0,0,1,1.31.27,4.68,4.68,0,0,1,1,.72l-.11-1.44V40.23h2.79V53.55h-2.28l-.19-.93h-.08a4.42,4.42,0,0,1-1.16.83A3,3,0,0,1,202.87,53.77Zm.72-2.28a1.78,1.78,0,0,0,.83-.19,2.09,2.09,0,0,0,.71-.67V46.78a2.22,2.22,0,0,0-.78-.47,2.45,2.45,0,0,0-.78-.13,1.49,1.49,0,0,0-1.18.64,3.14,3.14,0,0,0-.51,2,3.67,3.67,0,0,0,.45,2.05A1.45,1.45,0,0,0,203.59,51.5Z"/><path class="cls-2" d="M214.44,53.77a4.64,4.64,0,0,1-1.73-.33,4.39,4.39,0,0,1-1.47-1,4.6,4.6,0,0,1-1-1.55,6,6,0,0,1,0-4.2,4.6,4.6,0,0,1,1-1.55,4.39,4.39,0,0,1,1.47-1,4.64,4.64,0,0,1,1.73-.33,4.56,4.56,0,0,1,1.72.33,4.41,4.41,0,0,1,1.46,1,4.61,4.61,0,0,1,1,1.55,6,6,0,0,1,0,4.2,4.61,4.61,0,0,1-1,1.55,4.41,4.41,0,0,1-1.46,1A4.56,4.56,0,0,1,214.44,53.77Zm0-2.26a1.42,1.42,0,0,0,1.29-.72,4.6,4.6,0,0,0,0-3.91,1.53,1.53,0,0,0-2.59,0,4.7,4.7,0,0,0,0,3.91A1.41,1.41,0,0,0,214.44,51.51Z"/><path class="cls-2" d="M223.62,53.77a5.51,5.51,0,0,1-1.91-.36,5.89,5.89,0,0,1-1.7-1l1.25-1.75a5.66,5.66,0,0,0,1.24.74,3.07,3.07,0,0,0,1.2.25,1.56,1.56,0,0,0,.91-.21.69.69,0,0,0,.29-.59.6.6,0,0,0-.16-.41,1.65,1.65,0,0,0-.44-.33,4.32,4.32,0,0,0-.62-.28l-.7-.28a8.89,8.89,0,0,1-.87-.4,3.69,3.69,0,0,1-.8-.56,2.74,2.74,0,0,1-.59-.78,2.25,2.25,0,0,1-.23-1,2.8,2.8,0,0,1,.26-1.2,2.56,2.56,0,0,1,.73-.93,3.62,3.62,0,0,1,1.14-.6,4.74,4.74,0,0,1,1.48-.22,4.57,4.57,0,0,1,1.9.37,7.63,7.63,0,0,1,1.43.83l-1.25,1.67a5,5,0,0,0-1-.59,2.52,2.52,0,0,0-1-.21q-1.06,0-1.06.74a.55.55,0,0,0,.15.39,1.51,1.51,0,0,0,.41.29,5.35,5.35,0,0,0,.59.26l.69.26q.46.17.9.39a3.74,3.74,0,0,1,.82.54,2.48,2.48,0,0,1,.6.79,2.51,2.51,0,0,1,.23,1.11,2.9,2.9,0,0,1-.25,1.2,2.64,2.64,0,0,1-.74,1,3.71,3.71,0,0,1-1.22.65A5.36,5.36,0,0,1,223.62,53.77Z"/></g></g></svg>