<svg xmlns="http://www.w3.org/2000/svg" viewBox="0 0 19.22 19.75"><defs><style>.cls-1{fill:#e5312e;}</style></defs><title>ico-calendario</title><g id="Layer_2" data-name="Layer 2"><g id="menu_lateral" data-name="menu lateral"><path class="cls-1" d="M16.55,1.6h-1.6V0H13.88V1.6H5.34V0H4.27V1.6H2.67A2.67,2.67,0,0,0,0,4.27V17.08a2.67,2.67,0,0,0,2.67,2.67H16.55a2.67,2.67,0,0,0,2.67-2.67V4.27A2.67,2.67,0,0,0,16.55,1.6Zm1.6,15.48a1.6,1.6,0,0,1-1.6,1.6H2.67a1.6,1.6,0,0,1-1.6-1.6V6.94H18.15Zm0-11.21H1.07V4.27a1.6,1.6,0,0,1,1.6-1.6h1.6V3.74H5.34V2.67h8.54V3.74h1.07V2.67h1.6a1.6,1.6,0,0,1,1.6,1.6Z"/><path class="cls-1" d="M8.54,12.28h2.14a1.07,1.07,0,0,0,1.07-1.07V9.07A1.07,1.07,0,0,0,10.68,8H8.54A1.07,1.07,0,0,0,7.47,9.07v2.14A1.07,1.07,0,0,0,8.54,12.28Zm0-3.2h2.14v2.14H8.54Z"/><path class="cls-1" d="M13.88,12.28H16a1.07,1.07,0,0,0,1.07-1.07V9.07A1.07,1.07,0,0,0,16,8H13.88a1.07,1.07,0,0,0-1.07,1.07v2.14A1.07,1.07,0,0,0,13.88,12.28Zm0-3.2H16v2.14H13.88Z"/><path class="cls-1" d="M3.2,17.61H5.34a1.07,1.07,0,0,0,1.07-1.07V14.41a1.07,1.07,0,0,0-1.07-1.07H3.2a1.07,1.07,0,0,0-1.07,1.07v2.14A1.07,1.07,0,0,0,3.2,17.61Zm0-3.2H5.34v2.14H3.2Z"/><path class="cls-1" d="M8.54,17.61h2.14a1.07,1.07,0,0,0,1.07-1.07V14.41a1.07,1.07,0,0,0-1.07-1.07H8.54a1.07,1.07,0,0,0-1.07,1.07v2.14A1.07,1.07,0,0,0,8.54,17.61Zm0-3.2h2.14v2.14H8.54Z"/><path class="cls-1" d="M13.88,17.61H16a1.07,1.07,0,0,0,1.07-1.07V14.41A1.07,1.07,0,0,0,16,13.34H13.88a1.07,1.07,0,0,0-1.07,1.07v2.14A1.07,1.07,0,0,0,13.88,17.61Zm0-3.2H16v2.14H13.88Z"/></g></g></svg>