<svg xmlns="http://www.w3.org/2000/svg" viewBox="0 0 30.22 33.63"><defs><style>.cls-1{fill:#e5312e;}</style></defs><title>ico-usuario</title><g id="Layer_2" data-name="Layer 2"><g id="menu_lateral" data-name="menu lateral"><path class="cls-1" d="M28.73,33.63a1.5,1.5,0,0,1-1.5-1.5v-3.4a5.32,5.32,0,0,0-5.31-5.31H8.3A5.32,5.32,0,0,0,3,28.73v3.4a1.5,1.5,0,0,1-3,0v-3.4a8.31,8.31,0,0,1,8.3-8.3H21.92a8.31,8.31,0,0,1,8.3,8.3v3.4A1.5,1.5,0,0,1,28.73,33.63Z"/><path class="cls-1" d="M15.11,16.61a8.3,8.3,0,1,1,8.3-8.3A8.31,8.31,0,0,1,15.11,16.61ZM15.11,3A5.31,5.31,0,1,0,20.42,8.3,5.32,5.32,0,0,0,15.11,3Z"/></g></g></svg>