<svg xmlns="http://www.w3.org/2000/svg" viewBox="0 0 21.65 21.85"><defs><style>.cls-1{fill:none;stroke:#e5312e;stroke-miterlimit:10;}</style></defs><title>ico-buscar</title><g id="Layer_2" data-name="Layer 2"><g id="curso"><ellipse class="cls-1" cx="8.08" cy="8.21" rx="5.48" ry="5.54"/><path class="cls-1" d="M12.78,12.9"/><path class="cls-1" d="M13.46,2.75a7.53,7.53,0,0,0-10.74,0A7.68,7.68,0,0,0,8.09,15.83a7.51,7.51,0,0,0,5.38-2.26,7.7,7.7,0,0,0,0-10.82Z"/><polygon class="cls-1" points="20.67 18.28 18.11 20.86 13.43 16.14 15.99 13.55 20.67 18.28"/><line class="cls-1" x1="17.02" y1="15.19" x2="15.65" y2="16.57"/><path class="cls-1" d="M20.54,18.15l.61.62a2.57,2.57,0,0,1-2.55,2.58L18,20.73"/><line class="cls-1" x1="14.55" y1="14.73" x2="13.47" y2="13.65"/></g></g></svg>