<svg xmlns="http://www.w3.org/2000/svg" viewBox="0 0 18.75 25"><defs><style>.cls-1{fill:#b50404;}</style></defs><title>ico-menu-catalogos</title><g id="Layer_2" data-name="Layer 2"><g id="menu_lateral" data-name="menu lateral"><path class="cls-1" d="M13.84,7.59h4a.89.89,0,0,0,.89-.89V5.36a.91.91,0,0,0-.26-.63L14,.26A.89.89,0,0,0,13.39,0H6.25A2.68,2.68,0,0,0,3.57,2.68v.89H2.68A2.68,2.68,0,0,0,0,6.25V22.32A2.68,2.68,0,0,0,2.68,25H12.5a2.68,2.68,0,0,0,2.68-2.68v-.89h.89a2.68,2.68,0,0,0,2.68-2.68V10.27a.89.89,0,0,0-1.79,0v8.48a.89.89,0,0,1-.89.89H6.25a.89.89,0,0,1-.89-.89V2.68a.89.89,0,0,1,.89-.89h4.91V4.91A2.68,2.68,0,0,0,13.84,7.59ZM6.25,21.43h7.14v.89a.89.89,0,0,1-.89.89H2.68a.89.89,0,0,1-.89-.89V6.25a.89.89,0,0,1,.89-.89h.89V18.75A2.68,2.68,0,0,0,6.25,21.43ZM17,5.73V5.8H13.84a.89.89,0,0,1-.89-.89V1.79H13Z"/></g></g></svg>